<svg xmlns="http://www.w3.org/2000/svg" width="664.031" height="664.031" viewBox="0 0 664.031 664.031"><path d="M332.016 663.94c174.338 0 315.668 9.505 315.668-164.835 0-135.946-85.94-304.758-206.454-372.517H222.8c-120.514 67.76-206.454 236.57-206.454 372.517 0 174.34 141.33 164.834 315.668 164.834zM201.376 383.67c1.115-1.604 2.198-3.134 3.22-4.568.783-1.102 1.082-2.44.84-3.77-.24-1.334-.993-2.486-2.118-3.245l-21.573-14.554c-1.126-.76-1.64-2.01-1.377-3.34.264-1.334 1.216-2.293 2.547-2.565l83.238-17.048c.22-.044.44-.067.66-.067 1.574 0 2.922 1.125 3.208 2.676l15.38 83.576c.18.977-.06 1.92-.675 2.658-1.052 1.262-2.95 1.592-4.36.64l-22.98-15.498c-.828-.56-1.792-.854-2.788-.854-1.6 0-3.11.775-4.042 2.073-3.018 4.206-6.597 9.303-10.25 15.207-6.888 10.867-12.084 22.754-13.236 30.268-.58 3.545-.91 7.26.587 10.427 2.536 5.364 7.97 8.257 13.462 10.585 4.823 2.043 10.124 3.647 15.754 4.77 8.573 1.71 18.708 2.07 25.698 2.07 4.253 0 7.036-.134 7.2-.143 1.413-.113 2.676.964 2.79 2.37l4.037 50.092c-.05.77-.283 2.68-3.14 2.86-.048.002-4.77.066-10.36.066-7.59 0-13.208-.117-16.246-.34-19.516-1.42-37.232-5.86-52.64-13.19-14.938-7.36-26.328-17.624-33.85-30.505-.98-1.674-1.84-3.307-2.634-4.98-8.555-18.47-8.548-38.852.02-62.3 6.458-17.41 16.02-32.327 23.625-43.37zM285.05 241.75c13.05-10.35 27.2-16.247 42.062-17.53 1.935-.167 3.78-.247 5.627-.247 20.357.178 38.772 8.91 56.293 26.693 12.97 13.286 22.354 28.316 29.08 39.918.97 1.695 1.89 3.33 2.75 4.866.877 1.572 2.542 2.548 4.346 2.548.89 0 1.768-.24 2.54-.698l22.387-13.265c1.437-.852 3.26-.456 4.258.817.618.788.823 1.77.578 2.77l-20.233 82.52c-.358 1.468-1.66 2.49-3.168 2.49-.282 0-.566-.038-.844-.11l-82.112-21.887c-1.312-.35-2.208-1.363-2.394-2.708-.186-1.346.4-2.562 1.57-3.256l23.845-14.13c2.335-1.384 3.135-4.324 1.823-6.694-2.512-4.533-5.588-9.953-9.354-15.773-6.872-10.876-15.39-20.662-21.687-24.92-2.957-2.04-6.175-3.93-9.688-3.932-5.928 0-10.865 3.67-15.316 7.635-3.912 3.484-7.633 7.587-11.06 12.195-8.554 11.506-15.517 28.158-15.828 28.907-.488 1.293-2.027 2-3.336 1.505l-46.997-17.8c-.673-.373-2.3-1.402-1.242-4.062.08-.175 8.034-17.558 11.64-23.926 9.64-17.03 21.24-31.14 34.46-41.924zm85.944 297.395l-.094 26.023c-.007 2.042-1.683 3.263-3.3 3.263-.59 0-1.463-.164-2.26-.95l-60.468-59.687c-.63-.622-.975-1.45-.972-2.335s.354-1.712.988-2.33l60.897-59.27c.794-.772 1.657-.935 2.243-.935.886 0 1.75.36 2.376.988.424.425.927 1.168.923 2.3l-.1 27.717c-.008 2.714 2.106 4.91 4.813 4.997 2.772.09 6.48.194 10.563.194 2.702 0 5.25-.044 7.774-.134 12.862-.322 25.63-2.616 32.515-5.84 3.27-1.49 6.54-3.283 8.337-6.287 3.047-5.09 2.43-11.215 1.31-17.075-.986-5.146-2.602-10.444-4.8-15.747-5.49-13.246-16.216-27.764-16.698-28.413-.43-.542-.624-1.218-.544-1.905.08-.687.42-1.302.962-1.73l39.38-31.216c1.576-.894 2.967-.496 4.126 1.017.11.158 10.954 15.898 14.572 22.26 9.675 17.01 15.84 34.202 18.317 51.082 2.193 16.51 0 31.683-6.52 45.1-.85 1.745-1.727 3.37-2.673 4.958-10.592 17.385-27.533 28.716-51.784 34.64-16.976 4.06-33.242 4.53-44.002 4.53-1.792 0-3.525-.017-5.18-.037-1.954-.035-3.828-.083-5.59-.135l-.145-.002c-2.727-.002-4.957 2.225-4.967 4.962zM266.894 94.29H397.14l27.458-59.5C432.095 18.543 420.228 0 402.338 0H261.696c-17.892 0-29.758 18.544-22.26 34.79l27.458 59.5z"/></svg>