<svg xmlns="http://www.w3.org/2000/svg" width="457.391" height="457.391" viewBox="0 0 457.391 457.391"><path d="M316.702 174.32l19.488 13.643c1.563 1.094 3.4 1.672 5.31 1.672 3.025 0 5.864-1.478 7.597-3.953 2.93-4.186 1.908-9.976-2.276-12.906l-19.493-13.645c-1.563-1.092-3.398-1.67-5.304-1.67-3.025 0-5.866 1.478-7.6 3.955-2.93 4.186-1.908 9.975 2.28 12.905zM115.893 189.635c1.91 0 3.746-.578 5.31-1.673l19.488-13.642c4.187-2.93 5.21-8.72 2.28-12.906-1.733-2.476-4.574-3.955-7.598-3.955-1.906 0-3.74.578-5.306 1.673l-19.493 13.643c-4.185 2.93-5.206 8.72-2.275 12.907 1.732 2.475 4.57 3.952 7.595 3.952zM322.02 96.807c1.907 0 3.742-.58 5.307-1.677l19.494-13.644c4.184-2.93 5.204-8.72 2.275-12.906-1.733-2.475-4.572-3.952-7.595-3.952-1.907 0-3.744.58-5.31 1.677L316.7 79.947c-4.184 2.93-5.207 8.72-2.278 12.91 1.734 2.473 4.575 3.95 7.6 3.95zM110.573 81.487l19.49 13.64c1.567 1.1 3.402 1.68 5.308 1.68 3.027 0 5.868-1.477 7.602-3.954 2.927-4.186 1.904-9.976-2.28-12.906L121.2 66.305c-1.566-1.096-3.403-1.677-5.31-1.677-3.024 0-5.863 1.48-7.595 3.952-2.93 4.188-1.91 9.978 2.276 12.907zM228.696 39.454c5.108 0 9.267-4.158 9.267-9.27V9.267c0-5.11-4.157-9.267-9.267-9.267-5.11 0-9.267 4.157-9.267 9.267v20.918c0 5.11 4.157 9.27 9.266 9.27zM230.444 252.054l16.3-105.19-17.105 3.305c-.67.124-1.355.122-2.02-.008l-16.972-3.237 16.407 105.13h3.39z"/><path d="M198.147 267.064c0 .522.06 1.03.166 1.523-1.862 1.395-3.072 3.61-3.072 6.113 0 2.86 4.002 4.105 3.906 6.658-.1 2.55-8.27 3.97-8.27 8.613 0 4.77 8.763 5.69 8.763 8.638 0 2.938-4.4 3.85-4.4 6.905 0 4.22 3.417 7.638 7.64 7.638h51.633c4.223 0 7.64-3.417 7.64-7.637 0-8.796-40.773-6.905-40.773-6.905s45.137-.107 45.137-8.637c0-8.522-47.53-8.612-47.53-8.612s43.166.082 43.166-6.658c0-2.504-1.21-4.72-3.072-6.113.11-.492.167-1 .167-1.523 0-24.78 11.77-43.75 24.227-63.834 13.12-21.15 26.687-43.022 26.687-72.522 0-44.915-36.544-81.46-81.46-81.46-44.915 0-81.46 36.545-81.46 81.46 0 29.532 13.587 51.474 26.73 72.688 12.43 20.08 24.177 39.05 24.177 63.668zm2.338-130.71c1.257-1.21 3.026-1.733 4.737-1.397l23.507 4.507 23.478-4.515c1.705-.322 3.462.206 4.71 1.414 1.248 1.208 1.832 2.946 1.566 4.662l-18.16 117.197c-.403 2.607-2.648 4.53-5.286 4.53h-12.554c-2.636 0-4.88-1.92-5.286-4.524l-18.29-117.198c-.27-1.723.32-3.47 1.577-4.68zM196.184 393.64c-1.59-3.888-3.367-7.735-5.286-11.44-12.563-24.272-29.815-40.47-46.504-56.137-4.702-4.412-10.692-11.315-17.034-18.625-9.258-10.666-18.832-21.695-25.265-25.902-5.83-3.81-10.592-3.914-14.16-.312-5.202 5.257-3.667 15.05 4.978 31.75 5.777 11.163 14.154 24.312 23.024 38.23 1.425 2.237 2.872 4.512 4.33 6.806-15.71-17.182-27.247-32.807-34.345-46.52-8.152-15.748-9.81-27.918-4.667-34.262 3.632-4.48 10.545-5.595 19.465-3.135l1.322.363-.32-1.336c-.164-.69-16.647-69.36-20.13-82.357-.765-2.866-1.833-5.63-3.17-8.212-4.8-9.275-12.388-14.906-18.042-13.39-2.73.734-7.223 3.835-6.63 16.398L62.33 293.96c.44 3.54.75 7.246 1.077 11.176 1 12.01 2.037 24.43 6.952 33.924 2.044 3.95 4.413 7.52 7.24 10.906 5.09 6.102 19.25 20.836 34.242 36.432 14.593 15.184 29.684 30.883 35.195 37.438 4.322 5.146 8.063 10.814 11.44 17.336 2.718 5.254 5 10.674 7.037 16.217h52.745l-.792-2.694c-6.334-21.534-13.3-41.505-21.286-61.055zM397.01 169.162c-5.653-1.517-13.24 4.114-18.04 13.39-1.34 2.583-2.406 5.347-3.172 8.213-3.48 12.997-19.965 81.667-20.13 82.358l-.318 1.335 1.32-.363c8.922-2.46 15.834-1.347 19.467 3.136 5.144 6.345 3.484 18.515-4.667 34.26-7.1 13.714-18.636 29.34-34.345 46.522 1.458-2.294 2.904-4.567 4.33-6.805 8.87-13.92 17.246-27.068 23.023-38.23 8.645-16.702 10.18-26.495 4.978-31.75-3.567-3.605-8.332-3.5-14.16.31-6.433 4.208-16.007 15.237-25.265 25.903-6.34 7.31-12.33 14.21-17.033 18.625-16.688 15.666-33.94 31.862-46.504 56.135-1.92 3.707-3.697 7.555-5.286 11.443-7.987 19.55-14.952 39.52-21.288 61.057l-.793 2.69h52.745c2.038-5.542 4.32-10.962 7.038-16.214 3.376-6.52 7.117-12.19 11.44-17.336 5.51-6.557 20.603-22.256 35.194-37.44 14.992-15.595 29.15-30.33 34.242-36.43 2.827-3.388 5.196-6.956 7.24-10.907 4.915-9.494 5.952-21.912 6.953-33.923.328-3.93.636-7.636 1.076-11.176l8.583-108.402c.595-12.565-3.9-15.665-6.63-16.4z"/></svg>