<svg xmlns="http://www.w3.org/2000/svg" width="413.107" height="413.107" viewBox="0 0 413.107 413.107"><path d="M228.75 361.374c-9.324 1.727-18.933 2.64-28.75 2.64-86.83 0-157.457-70.642-157.457-157.46C42.543 119.74 113.17 49.098 200 49.098c86.832 0 157.46 70.64 157.46 157.457 0 1.252-.02 2.5-.05 3.747.7-.064 1.408-.103 2.127-.103 9.63 0 17.88 5.992 21.234 14.44h.23c6.313 0 12.333 1.272 17.823 3.567.77-7.114 1.176-14.336 1.176-21.65 0-110.276-89.726-200-200-200-110.277 0-200 89.724-200 200 0 110.275 89.723 200 200 200 14.542 0 28.724-1.575 42.394-4.538-8.426-8.4-13.646-20.012-13.646-32.82v-7.822z"/><path d="M178.717 105.287v87.93h-55.313c-11.728 0-21.257 9.53-21.257 21.284 0 11.743 9.53 21.272 21.257 21.272h76.598c11.757 0 21.284-9.528 21.284-21.27V105.286c0-11.742-9.526-21.27-21.284-21.27s-21.285 9.528-21.285 21.27zM308.172 260.032c0-2.854-.994-5.592-2.812-7.774V233.04c0-5.152-4.193-9.344-9.348-9.344h-.195c-5.15 0-9.342 4.19-9.342 9.344v19.218c-1.82 2.187-2.814 4.924-2.814 7.774 0 6.703 5.454 12.156 12.255 12.156h.1c6.704 0 12.157-5.453 12.157-12.156zM336.736 252.258V233.04c0-5.152-4.193-9.344-9.348-9.344s-9.346 4.19-9.346 9.344v19.22c-1.816 2.187-2.812 4.923-2.812 7.772 0 6.703 5.453 12.156 12.158 12.156 6.703 0 12.158-5.453 12.158-12.156.003-2.85-.99-5.59-2.81-7.774zM358.766 223.696c-5.154 0-9.346 4.19-9.346 9.344v19.218c-1.818 2.182-2.812 4.92-2.812 7.774 0 6.703 5.453 12.156 12.156 12.156 6.705 0 12.16-5.453 12.16-12.156 0-2.85-.996-5.586-2.816-7.773v-19.22c0-5.152-4.192-9.344-9.342-9.344z"/><path d="M380.23 238.137h-3.46v18.687h3.46c7.824 0 14.19 6.364 14.19 14.188v98.186c0 7.823-6.366 14.188-14.19 14.188H274.354c-7.824 0-14.19-6.365-14.19-14.188v-98.186c0-7.822 6.366-14.188 14.19-14.188h3.46v-18.687h-3.46c-18.13 0-32.877 14.747-32.877 32.873v98.186c0 18.126 14.748 32.873 32.877 32.873H380.23c18.13 0 32.877-14.748 32.877-32.874V271.01c0-18.126-14.748-32.873-32.877-32.873z"/><path d="M286.586 315.327c-6.727 0-12.195 5.47-12.195 12.194 0 6.725 5.472 12.194 12.196 12.194 6.723 0 12.193-5.47 12.193-12.193s-5.47-12.193-12.194-12.193zM327.295 315.327c-6.725 0-12.193 5.47-12.193 12.194 0 6.725 5.47 12.194 12.193 12.194s12.19-5.47 12.19-12.193-5.467-12.193-12.19-12.193zM368.002 315.327c-6.725 0-12.19 5.47-12.19 12.194 0 6.725 5.468 12.194 12.19 12.194 6.725 0 12.19-5.47 12.19-12.193.003-6.722-5.465-12.193-12.19-12.193zM286.586 348.037c-6.727 0-12.195 5.47-12.195 12.192 0 6.725 5.472 12.195 12.196 12.195 6.723 0 12.193-5.47 12.193-12.196 0-6.723-5.47-12.193-12.194-12.193zM327.295 348.037c-6.725 0-12.193 5.47-12.193 12.192 0 6.725 5.47 12.195 12.193 12.195s12.19-5.47 12.19-12.196c0-6.723-5.467-12.193-12.19-12.193zM368.002 348.037c-6.725 0-12.19 5.47-12.19 12.192 0 6.725 5.468 12.195 12.19 12.195 6.725 0 12.19-5.47 12.19-12.196.003-6.723-5.465-12.193-12.19-12.193zM368.002 282.616c-6.725 0-12.19 5.47-12.19 12.195s5.468 12.196 12.19 12.196c6.725 0 12.19-5.47 12.19-12.195.003-6.723-5.465-12.194-12.19-12.194z"/></svg>