<svg xmlns="http://www.w3.org/2000/svg" width="612.667" height="87" viewBox="0 0 612.667 87"><path fill="#191919" d="M9.334 81.684l29.323-6.748v-51.12l29.225-17.79 30.976 9.486 15.423-9.486 60.35 19.3v21.845l-18.68 4.15v24.395l30.097 5.97"/><path fill="#CFD634" d="M114.667 8.583v24.285l58.09 12.08v-18.28"/><path fill="#ADDADB" d="M130.39 21.334v9.233l7.73 1.488v-8.582"/><path d="M140.357 21.492l-9.967-2.683v2.524l7.73 2.14v8.58l2.237.43"/><path fill="#ADDADB" d="M150.902 26.538v8.63l7.733 1.39v-8.02"/><path d="M160.87 26.685l-9.968-2.507v2.36l7.733 2v8.02l2.236.4"/><path fill="#CFD634" d="M96.07 16.954l-28.12-8.69v35.212l13.482-2.364V26.35"/><path fill="#FFF" d="M49.543 29.992l6.964-3.07v-2.555l-9.33 4.41v8.37l2.366-.92"/><path fill="#ADDADB" d="M49.543 36.227l6.964-2.72v-6.585l-6.964 3.07M49.543 75.623l6.964.19v-17.52l-6.964 1.48"/><path fill="#FFF" d="M47.177 57.664V75.56l2.366.063v-15.85l6.964-1.48v-2.732"/><path fill="#ADDADB" d="M92.36 39.323V75.62h24.416V51.913h-9.14V41.878"/><path fill="#BBA12F" d="M122.016 51.912h11.377v23.71h-11.377z"/><path fill="#ADDADB" d="M138.442 51.912h14.696v23.71h-14.696z"/><g><g fill="#4D7CBA"><path d="M240.552 49.244c-.084-.357-.22-1.345-.41-2.962-.167-1.345-.315-2.458-.44-3.34-.19 1.05-.458 2.1-.804 3.15-.348 1.052-.783 2.123-1.308 3.215L225.52 73.89l-12.07-25.087c-.503-1.03-.94-2.027-1.308-2.994-.367-.967-.688-1.923-.96-2.868-.02.966-.102 1.98-.237 3.04-.138 1.062-.342 2.17-.614 3.325l-4.948 22.722h-6.9l10.903-48.092L223 53.058c.21.462.53 1.228.96 2.3.43 1.072.95 2.395 1.56 3.97.44-1.323 1.135-3.003 2.08-5.04.254-.547.442-.967.568-1.26l13.298-29.09 11.156 48.092h-6.965l-5.105-22.786zM258.61 72.028V25.89h25.745v6.367h-18.247v11.566h18.247v6.586h-18.247v14.904h18.247v6.713H258.61zM318.518 48.393h18.278c0 .315.01.756.03 1.323.064 1.493.096 2.5.096 3.026 0 6.49-1.86 11.534-5.58 15.127-3.716 3.59-8.96 5.388-15.724 5.388-3.78 0-7.152-.557-10.116-1.67-2.962-1.113-5.558-2.794-7.784-5.042-2.185-2.226-3.86-4.843-5.025-7.847-1.166-3.005-1.75-6.22-1.75-9.644 0-3.487.594-6.702 1.78-9.643 1.188-2.94 2.946-5.537 5.278-7.785 2.25-2.206 4.886-3.887 7.912-5.042 3.025-1.155 6.26-1.733 9.706-1.733 3.634 0 6.885.662 9.753 1.985 2.87 1.324 5.427 3.352 7.675 6.082l-5.483 4.128c-1.555-1.806-3.31-3.15-5.263-4.033-1.953-.883-4.14-1.324-6.555-1.324-5.002 0-9.083 1.603-12.245 4.808-3.16 3.204-4.74 7.37-4.74 12.495 0 5.21 1.58 9.438 4.74 12.684 3.162 3.247 7.265 4.87 12.307 4.87 4.287 0 7.658-.998 10.116-2.995 2.46-1.996 3.687-4.716 3.687-8.163v-.663h-11.092v-6.334zM375.275 72.028l-5.23-11.88h-18.278l-5.357 11.88h-7.88l22.343-47.964 22.313 47.964h-7.91zm-20.736-18.12h12.855L362.67 43.38c-.275-.672-.56-1.445-.853-2.316-.295-.872-.59-1.844-.882-2.916-.253 1.008-.52 1.95-.805 2.82-.283.873-.57 1.676-.866 2.412l-4.725 10.525zM407.01 72.028V25.89h25.746v6.367H414.51V43.76h18.246v6.587H414.51v21.68h-7.5zM447.915 51.386v20.642h-7.026V25.89h10.46c3.067 0 5.448.2 7.14.6 1.69.4 3.136 1.06 4.333 1.985 1.428 1.113 2.53 2.552 3.31 4.318.776 1.764 1.165 3.698 1.165 5.798 0 3.7-.894 6.592-2.68 8.683-1.786 2.09-4.423 3.346-7.91 3.766l15.884 20.988h-8.477l-15.348-20.642h-.852zm.473-5.83h1.356c3.97 0 6.606-.462 7.91-1.386 1.3-.925 1.953-2.563 1.953-4.917 0-2.542-.7-4.333-2.097-5.373-1.396-1.04-3.985-1.56-7.767-1.56h-1.356v13.237z"/><path d="M507.51 72.028l-5.232-11.88H484l-5.357 11.88h-7.88l22.344-47.964 22.312 47.964h-7.91zm-20.738-18.12h12.856L494.9 43.38c-.272-.672-.557-1.445-.85-2.316-.296-.872-.59-1.844-.883-2.916-.252 1.008-.52 1.95-.805 2.82-.283.873-.57 1.676-.866 2.412l-4.724 10.525z"/><path d="M557.395 49.244c-.083-.357-.22-1.345-.41-2.962-.167-1.345-.314-2.458-.44-3.34-.188 1.05-.457 2.1-.803 3.15-.348 1.052-.783 2.123-1.308 3.215l-12.07 24.582-12.07-25.087c-.504-1.03-.94-2.027-1.308-2.994-.367-.967-.688-1.923-.96-2.868-.022.966-.102 1.98-.237 3.04-.14 1.062-.343 2.17-.615 3.325l-4.95 22.722h-6.9l10.904-48.092 13.613 29.12c.21.462.53 1.228.962 2.3.43 1.072.95 2.395 1.56 3.97.44-1.323 1.134-3.003 2.08-5.04.253-.547.44-.967.567-1.26l13.298-29.09 11.155 48.092H562.5l-5.105-22.786zM575.453 72.028V25.89H601.2v6.367H582.95v11.566H601.2v6.586H582.95v14.904H601.2v6.713h-25.747z"/></g></g></svg>