<?xml version="1.0" encoding="utf-8"?>
<!-- Generator: Adobe Illustrator 16.0.0, SVG Export Plug-In . SVG Version: 6.00 Build 0)  -->
<!DOCTYPE svg PUBLIC "-//W3C//DTD SVG 1.1//EN" "http://www.w3.org/Graphics/SVG/1.1/DTD/svg11.dtd">
<svg version="1.1" id="Capa_1" xmlns="http://www.w3.org/2000/svg" xmlns:xlink="http://www.w3.org/1999/xlink" x="0px" y="0px"
	 width="612.667px" height="87px" viewBox="0 0 612.667 87" enable-background="new 0 0 612.667 87" xml:space="preserve">
<g>
	<polygon fill="#191919" points="9.334,81.684 38.657,74.936 38.657,23.816 67.882,6.027 98.858,15.512 114.281,6.026 
		174.631,25.327 174.631,47.171 155.949,51.321 155.949,75.715 186.047,81.684 	"/>
	<polygon fill="#CFD634" points="114.667,8.583 114.667,32.868 172.758,44.947 172.758,26.669 	"/>
	<g>
		<polygon fill="#ADDADB" points="130.39,21.334 130.39,30.567 138.12,32.055 138.12,23.473 		"/>
		<polygon points="140.357,21.492 130.39,18.809 130.39,21.334 138.12,23.473 138.12,32.055 140.357,32.485 		"/>
	</g>
	<g>
		<polygon fill="#ADDADB" points="150.902,26.538 150.902,35.167 158.635,36.557 158.635,28.538 		"/>
		<polygon points="160.871,26.685 150.902,24.178 150.902,26.538 158.635,28.538 158.635,36.557 160.871,36.958 		"/>
	</g>
	<polygon fill="#CFD634" points="96.069,16.954 67.949,8.263 67.949,43.476 81.432,41.112 81.432,26.349 	"/>
	<g>
		<polygon fill="#FFFFFF" points="49.543,29.992 56.507,26.922 56.507,24.367 47.177,28.777 47.177,37.148 49.543,36.227 		"/>
		<polygon fill="#ADDADB" points="49.543,36.227 56.507,33.507 56.507,26.922 49.543,29.992 		"/>
		<polygon fill="#ADDADB" points="49.543,75.623 56.507,75.813 56.507,58.294 49.543,59.774 		"/>
		<polygon fill="#FFFFFF" points="47.177,57.664 47.177,75.559 49.543,75.623 49.543,59.774 56.507,58.294 56.507,55.561 		"/>
	</g>
	<polygon fill="#ADDADB" points="92.361,39.323 92.361,75.621 116.776,75.621 116.776,51.912 107.637,51.912 107.637,41.878 	"/>
	<rect x="122.016" y="51.912" fill="#BBA12F" width="11.377" height="23.709"/>
	<rect x="138.442" y="51.912" fill="#ADDADB" width="14.696" height="23.709"/>
</g>
<g>
	<g>
		<path fill="#4D7CBA" d="M240.552,49.244c-0.084-0.357-0.22-1.345-0.41-2.962c-0.167-1.345-0.315-2.458-0.441-3.34
			c-0.188,1.05-0.457,2.101-0.803,3.151c-0.348,1.051-0.783,2.122-1.308,3.214l-12.071,24.582l-12.069-25.086
			c-0.503-1.029-0.94-2.027-1.308-2.994c-0.367-0.966-0.688-1.922-0.96-2.867c-0.021,0.966-0.102,1.98-0.237,3.041
			c-0.138,1.061-0.342,2.168-0.614,3.324l-4.949,22.722h-6.9l10.903-48.091l13.614,29.119c0.21,0.463,0.53,1.229,0.962,2.301
			c0.43,1.072,0.95,2.395,1.559,3.971c0.441-1.324,1.135-3.004,2.081-5.042c0.253-0.546,0.441-0.966,0.567-1.26l13.298-29.088
			l11.156,48.091h-6.965L240.552,49.244z"/>
		<path fill="#4D7CBA" d="M258.609,72.028V25.891h25.746v6.366h-18.247v11.566h18.247v6.586h-18.247v14.905h18.247v6.713H258.609z"
			/>
		<path fill="#4D7CBA" d="M318.518,48.393h18.278c0,0.315,0.01,0.756,0.031,1.323c0.063,1.493,0.095,2.501,0.095,3.026
			c0,6.491-1.859,11.534-5.579,15.127c-3.717,3.592-8.96,5.389-15.725,5.389c-3.781,0-7.152-0.557-10.116-1.67
			c-2.962-1.113-5.558-2.794-7.784-5.042c-2.185-2.226-3.859-4.843-5.025-7.847c-1.166-3.004-1.749-6.218-1.749-9.643
			c0-3.487,0.593-6.702,1.78-9.643c1.187-2.941,2.945-5.537,5.277-7.785c2.248-2.206,4.885-3.887,7.911-5.042
			c3.025-1.155,6.261-1.733,9.706-1.733c3.634,0,6.885,0.662,9.753,1.985c2.868,1.324,5.426,3.352,7.674,6.082l-5.483,4.128
			c-1.555-1.806-3.31-3.151-5.263-4.033c-1.952-0.883-4.139-1.324-6.554-1.324c-5.002,0-9.083,1.602-12.245,4.807
			c-3.161,3.204-4.741,7.369-4.741,12.495c0,5.21,1.58,9.438,4.741,12.684c3.162,3.247,7.265,4.869,12.307,4.869
			c4.287,0,7.658-0.997,10.116-2.994c2.459-1.996,3.687-4.716,3.687-8.163v-0.662h-11.092V48.393z"/>
		<path fill="#4D7CBA" d="M375.275,72.028l-5.231-11.881h-18.277l-5.357,11.881h-7.88l22.343-47.964l22.313,47.964H375.275z
			 M354.539,53.907h12.856l-4.726-10.525c-0.274-0.672-0.558-1.445-0.852-2.316c-0.295-0.872-0.589-1.844-0.882-2.916
			c-0.253,1.008-0.521,1.949-0.805,2.82c-0.283,0.873-0.571,1.676-0.866,2.412L354.539,53.907z"/>
		<path fill="#4D7CBA" d="M407.011,72.028V25.891h25.745v6.366h-18.247V43.76h18.247v6.587h-18.247v21.681H407.011z"/>
		<path fill="#4D7CBA" d="M447.915,51.386v20.642h-7.026V25.891h10.462c3.066,0,5.447,0.2,7.138,0.599
			c1.69,0.399,3.137,1.061,4.334,1.985c1.428,1.113,2.531,2.552,3.309,4.318c0.777,1.764,1.166,3.698,1.166,5.798
			c0,3.698-0.894,6.591-2.68,8.682c-1.786,2.091-4.423,3.346-7.909,3.766l15.883,20.989h-8.477l-15.348-20.642H447.915z
			 M448.388,45.557h1.356c3.97,0,6.606-0.463,7.909-1.387c1.302-0.925,1.954-2.563,1.954-4.917c0-2.542-0.699-4.333-2.097-5.373
			c-1.396-1.041-3.985-1.56-7.767-1.56h-1.356V45.557z"/>
		<path fill="#4D7CBA" d="M507.509,72.028l-5.231-11.881h-18.278l-5.357,11.881h-7.88l22.344-47.964l22.312,47.964H507.509z
			 M486.772,53.907h12.856l-4.727-10.525c-0.273-0.672-0.558-1.445-0.851-2.316c-0.296-0.872-0.589-1.844-0.883-2.916
			c-0.252,1.008-0.521,1.949-0.805,2.82c-0.283,0.873-0.57,1.676-0.866,2.412L486.772,53.907z"/>
		<path fill="#4D7CBA" d="M557.395,49.244c-0.083-0.357-0.22-1.345-0.409-2.962c-0.168-1.345-0.315-2.458-0.441-3.34
			c-0.188,1.05-0.457,2.101-0.803,3.151c-0.348,1.051-0.783,2.122-1.308,3.214l-12.071,24.582l-12.069-25.086
			c-0.504-1.029-0.94-2.027-1.308-2.994c-0.367-0.966-0.688-1.922-0.961-2.867c-0.021,0.966-0.101,1.98-0.236,3.041
			c-0.139,1.061-0.342,2.168-0.614,3.324l-4.949,22.722h-6.9l10.903-48.091l13.614,29.119c0.21,0.463,0.53,1.229,0.962,2.301
			c0.43,1.072,0.95,2.395,1.559,3.971c0.441-1.324,1.135-3.004,2.081-5.042c0.253-0.546,0.441-0.966,0.567-1.26l13.298-29.088
			l11.155,48.091H562.5L557.395,49.244z"/>
		<path fill="#4D7CBA" d="M575.453,72.028V25.891h25.746v6.366h-18.247v11.566h18.247v6.586h-18.247v14.905h18.247v6.713H575.453z"
			/>
	</g>
</g>
</svg>
